<mxfile host="app.diagrams.net" modified="2023-10-30T17:53:21.197Z" agent="Mozilla/5.0 (Windows NT 10.0; Win64; x64) AppleWebKit/537.36 (KHTML, like Gecko) Chrome/118.0.0.0 Safari/537.36" etag="NLcg8CMHjKCgXacRG8Xi" version="22.0.8" type="github">
  <diagram name="PÃ¡gina-1" id="AiTBYOJLLw1ZxXQ4s2i_">
    <mxGraphModel dx="1400" dy="723" grid="1" gridSize="10" guides="1" tooltips="1" connect="1" arrows="1" fold="1" page="1" pageScale="1" pageWidth="2336" pageHeight="1654" math="0" shadow="0">
      <root>
        <mxCell id="0" />
        <mxCell id="1" parent="0" />
        <mxCell id="NL5PaX1M7pp2Qz2mQWP8-86" style="edgeStyle=orthogonalEdgeStyle;rounded=0;orthogonalLoop=1;jettySize=auto;html=1;exitX=0;exitY=0.5;exitDx=0;exitDy=0;entryX=0;entryY=0.25;entryDx=0;entryDy=0;" parent="1" edge="1">
          <mxGeometry relative="1" as="geometry">
            <mxPoint x="970" y="1149.0000000000005" as="sourcePoint" />
          </mxGeometry>
        </mxCell>
        <mxCell id="8BOHeVOw2bGhtxWZLiZS-1" style="edgeStyle=orthogonalEdgeStyle;rounded=0;orthogonalLoop=1;jettySize=auto;html=1;exitX=0.5;exitY=0;exitDx=0;exitDy=0;entryX=0.5;entryY=1;entryDx=0;entryDy=0;endArrow=none;endFill=0;" edge="1" parent="1" source="8BOHeVOw2bGhtxWZLiZS-6" target="8BOHeVOw2bGhtxWZLiZS-7">
          <mxGeometry relative="1" as="geometry" />
        </mxCell>
        <mxCell id="8BOHeVOw2bGhtxWZLiZS-2" style="edgeStyle=orthogonalEdgeStyle;rounded=0;orthogonalLoop=1;jettySize=auto;html=1;exitX=0;exitY=0.5;exitDx=0;exitDy=0;entryX=1;entryY=0.5;entryDx=0;entryDy=0;endArrow=none;endFill=0;" edge="1" parent="1" source="8BOHeVOw2bGhtxWZLiZS-6" target="8BOHeVOw2bGhtxWZLiZS-12">
          <mxGeometry relative="1" as="geometry" />
        </mxCell>
        <mxCell id="8BOHeVOw2bGhtxWZLiZS-3" style="edgeStyle=orthogonalEdgeStyle;rounded=0;orthogonalLoop=1;jettySize=auto;html=1;exitX=0.5;exitY=1;exitDx=0;exitDy=0;entryX=0.5;entryY=0;entryDx=0;entryDy=0;endArrow=none;endFill=0;" edge="1" parent="1" source="8BOHeVOw2bGhtxWZLiZS-6" target="8BOHeVOw2bGhtxWZLiZS-26">
          <mxGeometry relative="1" as="geometry" />
        </mxCell>
        <mxCell id="8BOHeVOw2bGhtxWZLiZS-4" style="edgeStyle=orthogonalEdgeStyle;rounded=0;orthogonalLoop=1;jettySize=auto;html=1;exitX=1;exitY=0.5;exitDx=0;exitDy=0;entryX=0;entryY=0.5;entryDx=0;entryDy=0;endArrow=none;endFill=0;" edge="1" parent="1" source="8BOHeVOw2bGhtxWZLiZS-6" target="8BOHeVOw2bGhtxWZLiZS-25">
          <mxGeometry relative="1" as="geometry" />
        </mxCell>
        <mxCell id="8BOHeVOw2bGhtxWZLiZS-5" style="edgeStyle=orthogonalEdgeStyle;rounded=0;orthogonalLoop=1;jettySize=auto;html=1;exitX=0.25;exitY=0;exitDx=0;exitDy=0;entryX=1;entryY=0.5;entryDx=0;entryDy=0;endArrow=none;endFill=0;" edge="1" parent="1" source="8BOHeVOw2bGhtxWZLiZS-6" target="8BOHeVOw2bGhtxWZLiZS-61">
          <mxGeometry relative="1" as="geometry" />
        </mxCell>
        <mxCell id="8BOHeVOw2bGhtxWZLiZS-6" value="CITA" style="rounded=0;whiteSpace=wrap;html=1;" vertex="1" parent="1">
          <mxGeometry x="2550" y="1082" width="100" height="40" as="geometry" />
        </mxCell>
        <mxCell id="8BOHeVOw2bGhtxWZLiZS-7" value="compuesta" style="rhombus;whiteSpace=wrap;html=1;" vertex="1" parent="1">
          <mxGeometry x="2570" y="982" width="60" height="50" as="geometry" />
        </mxCell>
        <mxCell id="8BOHeVOw2bGhtxWZLiZS-8" style="edgeStyle=orthogonalEdgeStyle;rounded=0;orthogonalLoop=1;jettySize=auto;html=1;exitX=0.5;exitY=1;exitDx=0;exitDy=0;entryX=0.5;entryY=0;entryDx=0;entryDy=0;endArrow=none;endFill=0;" edge="1" parent="1" source="8BOHeVOw2bGhtxWZLiZS-9" target="8BOHeVOw2bGhtxWZLiZS-7">
          <mxGeometry relative="1" as="geometry" />
        </mxCell>
        <mxCell id="8BOHeVOw2bGhtxWZLiZS-9" value="RESERVA" style="rounded=0;whiteSpace=wrap;html=1;" vertex="1" parent="1">
          <mxGeometry x="2550" y="892" width="100" height="40" as="geometry" />
        </mxCell>
        <mxCell id="8BOHeVOw2bGhtxWZLiZS-10" value="1" style="text;html=1;align=center;verticalAlign=middle;resizable=0;points=[];autosize=1;strokeColor=none;fillColor=none;" vertex="1" parent="1">
          <mxGeometry x="2595" y="930" width="30" height="30" as="geometry" />
        </mxCell>
        <mxCell id="8BOHeVOw2bGhtxWZLiZS-11" value="*" style="text;html=1;align=center;verticalAlign=middle;resizable=0;points=[];autosize=1;strokeColor=none;fillColor=none;" vertex="1" parent="1">
          <mxGeometry x="2595" y="1060" width="30" height="30" as="geometry" />
        </mxCell>
        <mxCell id="8BOHeVOw2bGhtxWZLiZS-12" value="asiste" style="rhombus;whiteSpace=wrap;html=1;" vertex="1" parent="1">
          <mxGeometry x="2440" y="1077" width="60" height="50" as="geometry" />
        </mxCell>
        <mxCell id="8BOHeVOw2bGhtxWZLiZS-13" style="edgeStyle=orthogonalEdgeStyle;rounded=0;orthogonalLoop=1;jettySize=auto;html=1;exitX=1;exitY=0.5;exitDx=0;exitDy=0;entryX=0;entryY=0.5;entryDx=0;entryDy=0;endArrow=none;endFill=0;" edge="1" parent="1" source="8BOHeVOw2bGhtxWZLiZS-14" target="8BOHeVOw2bGhtxWZLiZS-12">
          <mxGeometry relative="1" as="geometry" />
        </mxCell>
        <mxCell id="8BOHeVOw2bGhtxWZLiZS-14" value="CLIENTE" style="rounded=0;whiteSpace=wrap;html=1;" vertex="1" parent="1">
          <mxGeometry x="2290" y="1082" width="100" height="40" as="geometry" />
        </mxCell>
        <mxCell id="8BOHeVOw2bGhtxWZLiZS-15" value="*" style="text;html=1;align=center;verticalAlign=middle;resizable=0;points=[];autosize=1;strokeColor=none;fillColor=none;" vertex="1" parent="1">
          <mxGeometry x="2525" y="1080" width="30" height="30" as="geometry" />
        </mxCell>
        <mxCell id="8BOHeVOw2bGhtxWZLiZS-16" value="1" style="text;html=1;align=center;verticalAlign=middle;resizable=0;points=[];autosize=1;strokeColor=none;fillColor=none;" vertex="1" parent="1">
          <mxGeometry x="2385" y="1070" width="30" height="30" as="geometry" />
        </mxCell>
        <mxCell id="8BOHeVOw2bGhtxWZLiZS-17" style="edgeStyle=orthogonalEdgeStyle;rounded=0;orthogonalLoop=1;jettySize=auto;html=1;exitX=0.5;exitY=0;exitDx=0;exitDy=0;entryX=0.5;entryY=1;entryDx=0;entryDy=0;endArrow=none;endFill=0;" edge="1" parent="1" source="8BOHeVOw2bGhtxWZLiZS-19" target="8BOHeVOw2bGhtxWZLiZS-26">
          <mxGeometry relative="1" as="geometry" />
        </mxCell>
        <mxCell id="8BOHeVOw2bGhtxWZLiZS-18" style="edgeStyle=orthogonalEdgeStyle;rounded=0;orthogonalLoop=1;jettySize=auto;html=1;exitX=0;exitY=0.5;exitDx=0;exitDy=0;entryX=1;entryY=0.5;entryDx=0;entryDy=0;endArrow=none;endFill=0;" edge="1" parent="1" source="8BOHeVOw2bGhtxWZLiZS-19" target="8BOHeVOw2bGhtxWZLiZS-36">
          <mxGeometry relative="1" as="geometry" />
        </mxCell>
        <mxCell id="8BOHeVOw2bGhtxWZLiZS-19" value="SERVICIO" style="rounded=0;whiteSpace=wrap;html=1;" vertex="1" parent="1">
          <mxGeometry x="2550" y="1222" width="100" height="40" as="geometry" />
        </mxCell>
        <mxCell id="8BOHeVOw2bGhtxWZLiZS-20" style="edgeStyle=orthogonalEdgeStyle;rounded=0;orthogonalLoop=1;jettySize=auto;html=1;exitX=1;exitY=0.5;exitDx=0;exitDy=0;entryX=0;entryY=0.5;entryDx=0;entryDy=0;endArrow=none;endFill=0;" edge="1" parent="1" source="8BOHeVOw2bGhtxWZLiZS-21" target="8BOHeVOw2bGhtxWZLiZS-71">
          <mxGeometry relative="1" as="geometry" />
        </mxCell>
        <mxCell id="8BOHeVOw2bGhtxWZLiZS-21" value="PAGO" style="rounded=0;whiteSpace=wrap;html=1;" vertex="1" parent="1">
          <mxGeometry x="2760" y="1082" width="100" height="40" as="geometry" />
        </mxCell>
        <mxCell id="8BOHeVOw2bGhtxWZLiZS-22" style="edgeStyle=orthogonalEdgeStyle;rounded=0;orthogonalLoop=1;jettySize=auto;html=1;exitX=1;exitY=0.5;exitDx=0;exitDy=0;entryX=0;entryY=0.5;entryDx=0;entryDy=0;endArrow=none;endFill=0;" edge="1" parent="1" source="8BOHeVOw2bGhtxWZLiZS-23" target="8BOHeVOw2bGhtxWZLiZS-64">
          <mxGeometry relative="1" as="geometry" />
        </mxCell>
        <mxCell id="8BOHeVOw2bGhtxWZLiZS-23" value="HORARIO" style="rounded=0;whiteSpace=wrap;html=1;" vertex="1" parent="1">
          <mxGeometry x="2740" y="1252" width="100" height="40" as="geometry" />
        </mxCell>
        <mxCell id="8BOHeVOw2bGhtxWZLiZS-24" style="edgeStyle=orthogonalEdgeStyle;rounded=0;orthogonalLoop=1;jettySize=auto;html=1;exitX=1;exitY=0.5;exitDx=0;exitDy=0;entryX=0;entryY=0.5;entryDx=0;entryDy=0;endArrow=none;endFill=0;" edge="1" parent="1" source="8BOHeVOw2bGhtxWZLiZS-25" target="8BOHeVOw2bGhtxWZLiZS-21">
          <mxGeometry relative="1" as="geometry" />
        </mxCell>
        <mxCell id="8BOHeVOw2bGhtxWZLiZS-25" value="tiene" style="rhombus;whiteSpace=wrap;html=1;" vertex="1" parent="1">
          <mxGeometry x="2680" y="1077" width="60" height="50" as="geometry" />
        </mxCell>
        <mxCell id="8BOHeVOw2bGhtxWZLiZS-26" value="realizado" style="rhombus;whiteSpace=wrap;html=1;" vertex="1" parent="1">
          <mxGeometry x="2570" y="1142" width="60" height="50" as="geometry" />
        </mxCell>
        <mxCell id="8BOHeVOw2bGhtxWZLiZS-27" style="edgeStyle=orthogonalEdgeStyle;rounded=0;orthogonalLoop=1;jettySize=auto;html=1;exitX=0.5;exitY=1;exitDx=0;exitDy=0;entryX=0.5;entryY=0;entryDx=0;entryDy=0;endArrow=none;endFill=0;" edge="1" parent="1" source="8BOHeVOw2bGhtxWZLiZS-28" target="8BOHeVOw2bGhtxWZLiZS-23">
          <mxGeometry relative="1" as="geometry" />
        </mxCell>
        <mxCell id="8BOHeVOw2bGhtxWZLiZS-28" value="tiene" style="rhombus;whiteSpace=wrap;html=1;" vertex="1" parent="1">
          <mxGeometry x="2710" y="1172" width="60" height="50" as="geometry" />
        </mxCell>
        <mxCell id="8BOHeVOw2bGhtxWZLiZS-29" style="edgeStyle=orthogonalEdgeStyle;rounded=0;orthogonalLoop=1;jettySize=auto;html=1;exitX=0.5;exitY=0;exitDx=0;exitDy=0;entryX=0.9;entryY=1;entryDx=0;entryDy=0;entryPerimeter=0;endArrow=none;endFill=0;" edge="1" parent="1" source="8BOHeVOw2bGhtxWZLiZS-28" target="8BOHeVOw2bGhtxWZLiZS-6">
          <mxGeometry relative="1" as="geometry" />
        </mxCell>
        <mxCell id="8BOHeVOw2bGhtxWZLiZS-30" value="1" style="text;html=1;align=center;verticalAlign=middle;resizable=0;points=[];autosize=1;strokeColor=none;fillColor=none;" vertex="1" parent="1">
          <mxGeometry x="2640" y="1077" width="30" height="30" as="geometry" />
        </mxCell>
        <mxCell id="8BOHeVOw2bGhtxWZLiZS-31" value="1" style="text;html=1;align=center;verticalAlign=middle;resizable=0;points=[];autosize=1;strokeColor=none;fillColor=none;" vertex="1" parent="1">
          <mxGeometry x="2735" y="1070" width="30" height="30" as="geometry" />
        </mxCell>
        <mxCell id="8BOHeVOw2bGhtxWZLiZS-32" value="1" style="text;html=1;align=center;verticalAlign=middle;resizable=0;points=[];autosize=1;strokeColor=none;fillColor=none;" vertex="1" parent="1">
          <mxGeometry x="2595" y="1112" width="30" height="30" as="geometry" />
        </mxCell>
        <mxCell id="8BOHeVOw2bGhtxWZLiZS-33" value="*" style="text;html=1;align=center;verticalAlign=middle;resizable=0;points=[];autosize=1;strokeColor=none;fillColor=none;" vertex="1" parent="1">
          <mxGeometry x="2595" y="1202" width="30" height="30" as="geometry" />
        </mxCell>
        <mxCell id="8BOHeVOw2bGhtxWZLiZS-34" value="1" style="text;html=1;align=center;verticalAlign=middle;resizable=0;points=[];autosize=1;strokeColor=none;fillColor=none;" vertex="1" parent="1">
          <mxGeometry x="2785" y="1230" width="30" height="30" as="geometry" />
        </mxCell>
        <mxCell id="8BOHeVOw2bGhtxWZLiZS-35" value="0-*" style="text;html=1;align=center;verticalAlign=middle;resizable=0;points=[];autosize=1;strokeColor=none;fillColor=none;" vertex="1" parent="1">
          <mxGeometry x="2635" y="1112" width="40" height="30" as="geometry" />
        </mxCell>
        <mxCell id="8BOHeVOw2bGhtxWZLiZS-36" value="compuesto" style="rhombus;whiteSpace=wrap;html=1;" vertex="1" parent="1">
          <mxGeometry x="2450" y="1217" width="60" height="50" as="geometry" />
        </mxCell>
        <mxCell id="8BOHeVOw2bGhtxWZLiZS-37" style="edgeStyle=orthogonalEdgeStyle;rounded=0;orthogonalLoop=1;jettySize=auto;html=1;exitX=1;exitY=0.5;exitDx=0;exitDy=0;entryX=0;entryY=0.5;entryDx=0;entryDy=0;endArrow=none;endFill=0;" edge="1" parent="1" source="8BOHeVOw2bGhtxWZLiZS-38" target="8BOHeVOw2bGhtxWZLiZS-36">
          <mxGeometry relative="1" as="geometry" />
        </mxCell>
        <mxCell id="8BOHeVOw2bGhtxWZLiZS-38" value="tipoSERVICIO" style="rounded=0;whiteSpace=wrap;html=1;" vertex="1" parent="1">
          <mxGeometry x="2290" y="1222" width="100" height="40" as="geometry" />
        </mxCell>
        <mxCell id="8BOHeVOw2bGhtxWZLiZS-39" value="1" style="text;html=1;align=center;verticalAlign=middle;resizable=0;points=[];autosize=1;strokeColor=none;fillColor=none;" vertex="1" parent="1">
          <mxGeometry x="2385" y="1210" width="30" height="30" as="geometry" />
        </mxCell>
        <mxCell id="8BOHeVOw2bGhtxWZLiZS-40" value="1" style="text;html=1;align=center;verticalAlign=middle;resizable=0;points=[];autosize=1;strokeColor=none;fillColor=none;" vertex="1" parent="1">
          <mxGeometry x="2525" y="1220" width="30" height="30" as="geometry" />
        </mxCell>
        <mxCell id="8BOHeVOw2bGhtxWZLiZS-41" style="edgeStyle=orthogonalEdgeStyle;rounded=0;orthogonalLoop=1;jettySize=auto;html=1;exitX=1;exitY=0.5;exitDx=0;exitDy=0;entryX=0.5;entryY=0;entryDx=0;entryDy=0;endArrow=none;endFill=0;" edge="1" parent="1" source="8BOHeVOw2bGhtxWZLiZS-42" target="8BOHeVOw2bGhtxWZLiZS-49">
          <mxGeometry relative="1" as="geometry" />
        </mxCell>
        <mxCell id="8BOHeVOw2bGhtxWZLiZS-42" value="COMPRA" style="rounded=0;whiteSpace=wrap;html=1;" vertex="1" parent="1">
          <mxGeometry x="2550" y="802" width="100" height="40" as="geometry" />
        </mxCell>
        <mxCell id="8BOHeVOw2bGhtxWZLiZS-43" style="edgeStyle=orthogonalEdgeStyle;rounded=0;orthogonalLoop=1;jettySize=auto;html=1;exitX=1;exitY=0.5;exitDx=0;exitDy=0;entryX=0;entryY=0.5;entryDx=0;entryDy=0;endArrow=none;endFill=0;" edge="1" parent="1" source="8BOHeVOw2bGhtxWZLiZS-45" target="8BOHeVOw2bGhtxWZLiZS-42">
          <mxGeometry relative="1" as="geometry" />
        </mxCell>
        <mxCell id="8BOHeVOw2bGhtxWZLiZS-44" style="edgeStyle=orthogonalEdgeStyle;rounded=0;orthogonalLoop=1;jettySize=auto;html=1;exitX=0.5;exitY=1;exitDx=0;exitDy=0;entryX=0.5;entryY=0;entryDx=0;entryDy=0;endArrow=none;endFill=0;" edge="1" parent="1" source="8BOHeVOw2bGhtxWZLiZS-45" target="8BOHeVOw2bGhtxWZLiZS-14">
          <mxGeometry relative="1" as="geometry" />
        </mxCell>
        <mxCell id="8BOHeVOw2bGhtxWZLiZS-45" value="hace" style="rhombus;whiteSpace=wrap;html=1;" vertex="1" parent="1">
          <mxGeometry x="2310" y="797" width="60" height="50" as="geometry" />
        </mxCell>
        <mxCell id="8BOHeVOw2bGhtxWZLiZS-46" value="1" style="text;html=1;align=center;verticalAlign=middle;resizable=0;points=[];autosize=1;strokeColor=none;fillColor=none;" vertex="1" parent="1">
          <mxGeometry x="2335" y="1050" width="30" height="30" as="geometry" />
        </mxCell>
        <mxCell id="8BOHeVOw2bGhtxWZLiZS-47" value="0-*" style="text;html=1;align=center;verticalAlign=middle;resizable=0;points=[];autosize=1;strokeColor=none;fillColor=none;" vertex="1" parent="1">
          <mxGeometry x="2510" y="790" width="40" height="30" as="geometry" />
        </mxCell>
        <mxCell id="8BOHeVOw2bGhtxWZLiZS-48" style="edgeStyle=orthogonalEdgeStyle;rounded=0;orthogonalLoop=1;jettySize=auto;html=1;exitX=0.5;exitY=1;exitDx=0;exitDy=0;entryX=0.25;entryY=0;entryDx=0;entryDy=0;endArrow=none;endFill=0;" edge="1" parent="1" source="8BOHeVOw2bGhtxWZLiZS-49" target="8BOHeVOw2bGhtxWZLiZS-21">
          <mxGeometry relative="1" as="geometry" />
        </mxCell>
        <mxCell id="8BOHeVOw2bGhtxWZLiZS-49" value="vale" style="rhombus;whiteSpace=wrap;html=1;" vertex="1" parent="1">
          <mxGeometry x="2720" y="932" width="60" height="50" as="geometry" />
        </mxCell>
        <mxCell id="8BOHeVOw2bGhtxWZLiZS-50" value="1" style="text;html=1;align=center;verticalAlign=middle;resizable=0;points=[];autosize=1;strokeColor=none;fillColor=none;" vertex="1" parent="1">
          <mxGeometry x="2765" y="1052" width="30" height="30" as="geometry" />
        </mxCell>
        <mxCell id="8BOHeVOw2bGhtxWZLiZS-51" value="1" style="text;html=1;align=center;verticalAlign=middle;resizable=0;points=[];autosize=1;strokeColor=none;fillColor=none;" vertex="1" parent="1">
          <mxGeometry x="2640" y="817" width="30" height="30" as="geometry" />
        </mxCell>
        <mxCell id="8BOHeVOw2bGhtxWZLiZS-52" style="edgeStyle=orthogonalEdgeStyle;rounded=0;orthogonalLoop=1;jettySize=auto;html=1;exitX=0;exitY=0.5;exitDx=0;exitDy=0;endArrow=none;endFill=0;" edge="1" parent="1" source="8BOHeVOw2bGhtxWZLiZS-54">
          <mxGeometry relative="1" as="geometry">
            <mxPoint x="2750" y="821.7272727272725" as="targetPoint" />
          </mxGeometry>
        </mxCell>
        <mxCell id="8BOHeVOw2bGhtxWZLiZS-53" style="edgeStyle=orthogonalEdgeStyle;rounded=0;orthogonalLoop=1;jettySize=auto;html=1;exitX=1;exitY=0.5;exitDx=0;exitDy=0;entryX=0;entryY=0.5;entryDx=0;entryDy=0;endArrow=none;endFill=0;" edge="1" parent="1" source="8BOHeVOw2bGhtxWZLiZS-54" target="8BOHeVOw2bGhtxWZLiZS-56">
          <mxGeometry relative="1" as="geometry" />
        </mxCell>
        <mxCell id="8BOHeVOw2bGhtxWZLiZS-54" value="tiene" style="rhombus;whiteSpace=wrap;html=1;" vertex="1" parent="1">
          <mxGeometry x="2780" y="797" width="60" height="50" as="geometry" />
        </mxCell>
        <mxCell id="8BOHeVOw2bGhtxWZLiZS-55" style="edgeStyle=orthogonalEdgeStyle;rounded=0;orthogonalLoop=1;jettySize=auto;html=1;exitX=0.5;exitY=1;exitDx=0;exitDy=0;entryX=0.5;entryY=0;entryDx=0;entryDy=0;endArrow=none;endFill=0;" edge="1" parent="1" source="8BOHeVOw2bGhtxWZLiZS-56" target="8BOHeVOw2bGhtxWZLiZS-74">
          <mxGeometry relative="1" as="geometry" />
        </mxCell>
        <mxCell id="8BOHeVOw2bGhtxWZLiZS-56" value="ARTICULO" style="rounded=0;whiteSpace=wrap;html=1;" vertex="1" parent="1">
          <mxGeometry x="2900" y="802" width="100" height="40" as="geometry" />
        </mxCell>
        <mxCell id="8BOHeVOw2bGhtxWZLiZS-57" value="1" style="text;html=1;align=center;verticalAlign=middle;resizable=0;points=[];autosize=1;strokeColor=none;fillColor=none;" vertex="1" parent="1">
          <mxGeometry x="2645" y="790" width="30" height="30" as="geometry" />
        </mxCell>
        <mxCell id="8BOHeVOw2bGhtxWZLiZS-58" value="1-*" style="text;html=1;align=center;verticalAlign=middle;resizable=0;points=[];autosize=1;strokeColor=none;fillColor=none;" vertex="1" parent="1">
          <mxGeometry x="2870" y="800" width="40" height="30" as="geometry" />
        </mxCell>
        <mxCell id="8BOHeVOw2bGhtxWZLiZS-59" value="RESEÃA" style="rounded=0;whiteSpace=wrap;html=1;" vertex="1" parent="1">
          <mxGeometry x="2410" y="952" width="100" height="40" as="geometry" />
        </mxCell>
        <mxCell id="8BOHeVOw2bGhtxWZLiZS-60" style="edgeStyle=orthogonalEdgeStyle;rounded=0;orthogonalLoop=1;jettySize=auto;html=1;exitX=0.5;exitY=0;exitDx=0;exitDy=0;entryX=0.75;entryY=1;entryDx=0;entryDy=0;endArrow=none;endFill=0;" edge="1" parent="1" source="8BOHeVOw2bGhtxWZLiZS-61" target="8BOHeVOw2bGhtxWZLiZS-59">
          <mxGeometry relative="1" as="geometry" />
        </mxCell>
        <mxCell id="8BOHeVOw2bGhtxWZLiZS-61" value="tiene" style="rhombus;whiteSpace=wrap;html=1;" vertex="1" parent="1">
          <mxGeometry x="2480" y="1010" width="60" height="50" as="geometry" />
        </mxCell>
        <mxCell id="8BOHeVOw2bGhtxWZLiZS-62" value="0-1" style="text;html=1;align=center;verticalAlign=middle;resizable=0;points=[];autosize=1;strokeColor=none;fillColor=none;" vertex="1" parent="1">
          <mxGeometry x="2480" y="982" width="40" height="30" as="geometry" />
        </mxCell>
        <mxCell id="8BOHeVOw2bGhtxWZLiZS-63" value="1" style="text;html=1;align=center;verticalAlign=middle;resizable=0;points=[];autosize=1;strokeColor=none;fillColor=none;" vertex="1" parent="1">
          <mxGeometry x="2545" y="1050" width="30" height="30" as="geometry" />
        </mxCell>
        <mxCell id="8BOHeVOw2bGhtxWZLiZS-64" value="trabaja" style="rhombus;whiteSpace=wrap;html=1;" vertex="1" parent="1">
          <mxGeometry x="2900" y="1247" width="60" height="50" as="geometry" />
        </mxCell>
        <mxCell id="8BOHeVOw2bGhtxWZLiZS-65" style="edgeStyle=orthogonalEdgeStyle;rounded=0;orthogonalLoop=1;jettySize=auto;html=1;exitX=0;exitY=0.5;exitDx=0;exitDy=0;entryX=1;entryY=0.5;entryDx=0;entryDy=0;endArrow=none;endFill=0;" edge="1" parent="1" source="8BOHeVOw2bGhtxWZLiZS-66" target="8BOHeVOw2bGhtxWZLiZS-64">
          <mxGeometry relative="1" as="geometry" />
        </mxCell>
        <mxCell id="8BOHeVOw2bGhtxWZLiZS-66" value="EMPLEADO" style="rounded=0;whiteSpace=wrap;html=1;" vertex="1" parent="1">
          <mxGeometry x="3030" y="1252" width="100" height="40" as="geometry" />
        </mxCell>
        <mxCell id="8BOHeVOw2bGhtxWZLiZS-67" value="1" style="text;html=1;align=center;verticalAlign=middle;resizable=0;points=[];autosize=1;strokeColor=none;fillColor=none;" vertex="1" parent="1">
          <mxGeometry x="2835" y="1240" width="30" height="30" as="geometry" />
        </mxCell>
        <mxCell id="8BOHeVOw2bGhtxWZLiZS-68" value="0-*" style="text;html=1;align=center;verticalAlign=middle;resizable=0;points=[];autosize=1;strokeColor=none;fillColor=none;" vertex="1" parent="1">
          <mxGeometry x="3000" y="1240" width="40" height="30" as="geometry" />
        </mxCell>
        <mxCell id="8BOHeVOw2bGhtxWZLiZS-69" value="METODO_PAGO" style="rounded=0;whiteSpace=wrap;html=1;" vertex="1" parent="1">
          <mxGeometry x="3010" y="1082" width="100" height="40" as="geometry" />
        </mxCell>
        <mxCell id="8BOHeVOw2bGhtxWZLiZS-70" style="edgeStyle=orthogonalEdgeStyle;rounded=0;orthogonalLoop=1;jettySize=auto;html=1;exitX=1;exitY=0.5;exitDx=0;exitDy=0;entryX=0;entryY=0.5;entryDx=0;entryDy=0;endArrow=none;endFill=0;" edge="1" parent="1" source="8BOHeVOw2bGhtxWZLiZS-71" target="8BOHeVOw2bGhtxWZLiZS-69">
          <mxGeometry relative="1" as="geometry" />
        </mxCell>
        <mxCell id="8BOHeVOw2bGhtxWZLiZS-71" value="ejecuta" style="rhombus;whiteSpace=wrap;html=1;" vertex="1" parent="1">
          <mxGeometry x="2900" y="1077" width="60" height="50" as="geometry" />
        </mxCell>
        <mxCell id="8BOHeVOw2bGhtxWZLiZS-72" value="1" style="text;html=1;align=center;verticalAlign=middle;resizable=0;points=[];autosize=1;strokeColor=none;fillColor=none;" vertex="1" parent="1">
          <mxGeometry x="2855" y="1080" width="30" height="30" as="geometry" />
        </mxCell>
        <mxCell id="8BOHeVOw2bGhtxWZLiZS-73" value="*" style="text;html=1;align=center;verticalAlign=middle;resizable=0;points=[];autosize=1;strokeColor=none;fillColor=none;" vertex="1" parent="1">
          <mxGeometry x="2985" y="1080" width="30" height="30" as="geometry" />
        </mxCell>
        <mxCell id="8BOHeVOw2bGhtxWZLiZS-74" value="es" style="rhombus;whiteSpace=wrap;html=1;" vertex="1" parent="1">
          <mxGeometry x="2920" y="872" width="60" height="50" as="geometry" />
        </mxCell>
        <mxCell id="8BOHeVOw2bGhtxWZLiZS-75" style="edgeStyle=orthogonalEdgeStyle;rounded=0;orthogonalLoop=1;jettySize=auto;html=1;exitX=0.5;exitY=0;exitDx=0;exitDy=0;entryX=0.5;entryY=1;entryDx=0;entryDy=0;endArrow=none;endFill=0;" edge="1" parent="1" source="8BOHeVOw2bGhtxWZLiZS-77" target="8BOHeVOw2bGhtxWZLiZS-74">
          <mxGeometry relative="1" as="geometry" />
        </mxCell>
        <mxCell id="8BOHeVOw2bGhtxWZLiZS-76" style="edgeStyle=orthogonalEdgeStyle;rounded=0;orthogonalLoop=1;jettySize=auto;html=1;exitX=1;exitY=0.5;exitDx=0;exitDy=0;entryX=0;entryY=0.5;entryDx=0;entryDy=0;endArrow=none;endFill=0;" edge="1" parent="1" source="8BOHeVOw2bGhtxWZLiZS-77" target="8BOHeVOw2bGhtxWZLiZS-80">
          <mxGeometry relative="1" as="geometry" />
        </mxCell>
        <mxCell id="8BOHeVOw2bGhtxWZLiZS-77" value="PRODUCTO" style="rounded=0;whiteSpace=wrap;html=1;" vertex="1" parent="1">
          <mxGeometry x="2900" y="972" width="100" height="40" as="geometry" />
        </mxCell>
        <mxCell id="8BOHeVOw2bGhtxWZLiZS-78" value="tipoPRODUCTO" style="rounded=0;whiteSpace=wrap;html=1;" vertex="1" parent="1">
          <mxGeometry x="3150" y="972" width="100" height="40" as="geometry" />
        </mxCell>
        <mxCell id="8BOHeVOw2bGhtxWZLiZS-79" style="edgeStyle=orthogonalEdgeStyle;rounded=0;orthogonalLoop=1;jettySize=auto;html=1;exitX=1;exitY=0.5;exitDx=0;exitDy=0;entryX=0;entryY=0.5;entryDx=0;entryDy=0;endArrow=none;endFill=0;" edge="1" parent="1" source="8BOHeVOw2bGhtxWZLiZS-80" target="8BOHeVOw2bGhtxWZLiZS-78">
          <mxGeometry relative="1" as="geometry" />
        </mxCell>
        <mxCell id="8BOHeVOw2bGhtxWZLiZS-80" value="compuesto" style="rhombus;whiteSpace=wrap;html=1;" vertex="1" parent="1">
          <mxGeometry x="3040" y="967" width="60" height="50" as="geometry" />
        </mxCell>
        <mxCell id="8BOHeVOw2bGhtxWZLiZS-81" value="1" style="text;html=1;align=center;verticalAlign=middle;resizable=0;points=[];autosize=1;strokeColor=none;fillColor=none;" vertex="1" parent="1">
          <mxGeometry x="2995" y="960" width="30" height="30" as="geometry" />
        </mxCell>
        <mxCell id="8BOHeVOw2bGhtxWZLiZS-82" value="1" style="text;html=1;align=center;verticalAlign=middle;resizable=0;points=[];autosize=1;strokeColor=none;fillColor=none;" vertex="1" parent="1">
          <mxGeometry x="3125" y="960" width="30" height="30" as="geometry" />
        </mxCell>
        <mxCell id="8BOHeVOw2bGhtxWZLiZS-83" value="1" style="text;html=1;align=center;verticalAlign=middle;resizable=0;points=[];autosize=1;strokeColor=none;fillColor=none;" vertex="1" parent="1">
          <mxGeometry x="2945" y="940" width="30" height="30" as="geometry" />
        </mxCell>
        <mxCell id="8BOHeVOw2bGhtxWZLiZS-84" value="*" style="text;html=1;align=center;verticalAlign=middle;resizable=0;points=[];autosize=1;strokeColor=none;fillColor=none;" vertex="1" parent="1">
          <mxGeometry x="2945" y="842" width="30" height="30" as="geometry" />
        </mxCell>
      </root>
    </mxGraphModel>
  </diagram>
</mxfile>
